# File produced by Open Asset Import Library (http://www.assimp.sf.net)
# (assimp v5.0.1588609223)

mtllib result.mtl

# 57 vertex positions
v  -46.20546 -36.593216 42.310051
v  -88.47438 -84.136932 11.600317
v  -36.360474 -42.677837 1.5690554
v  -168.17162 -53.962181 1.5690564
v  -107.28973 -54.474834 -60.566738
v  -127.27966 -6.0889473 -75.367661
v  -46.20546 -36.593231 -39.171932
v  -56.730938 -1.9360347 -61.125561
v  -102.56165 -42.527355 70.716942
v  -90.907234 16.467781 78.777176
v  -147.54724 26.039948 63.331596
v  -60.870045 63.248066 0.96466321
v  -116.08815 80.26487 11.600286
v  -97.27285 50.602695 -60.566772
v  -48.950165 38.805805 -37.178135
v  -182.53711 19.114502 -8.1671619
v  -56.730938 -1.9360142 64.263657
v  91.632675 -16.868839 -78.503792
v  49.67561 -39.206867 -40.04285
v  57.456383 1.5349597 -63.990292
v  102.72634 -39.056286 67.852188
v  118.09422 25.947294 77.600922
v  57.456383 1.5349801 61.398918
v  168.89699 53.561157 -1.2956942
v  89.199821 83.735878 8.7355385
v  46.930897 36.192177 39.445293
v  46.930897 36.192162 -42.036682
v  37.085922 42.276779 -1.2956909
v  108.01513 54.07375 -63.431492
v  183.26254 -19.515493 8.4405403
v  148.27266 -26.44096 -63.058178
v  49.67561 -39.206852 37.451496
v  116.81364 -80.665939 -11.32693
v  76.743607 -72.677979 17.785583
v  33.693321 -33.121925 -1.2956786
v  -8.8287954 -96.511604 27.228954
v  -70.480003 -70.224243 -24.622766
v  -23.505836 -67.15757 -72.40078
v  41.909023 -92.848946 1.2570549e-05
v  -58.760319 2.9159448 -80.901665
v  84.768333 -49.462982 27.917524
v  104.40715 8.2749004 -5.2902755e-07
v  58.796795 2.915971 80.901665
v  32.276314 8.2748852 -99.27977
v  52.758938 -49.463219 -71.974815
v  70.51651 76.056076 -24.622782
v  0.38003248 55.29528 -89.229019
v  8.8652353 102.34357 -27.228956
v  -41.872478 98.680847 -1.5084945e-05
v  -84.731903 55.294994 -27.917501
v  -52.72253 55.295086 71.974846
v  23.542257 72.989456 72.400734
v  84.992081 55.29504 27.228994
v  -104.37067 -2.4430039 6.0571102e-07
v  -32.239845 -2.4429858 99.279762
v  -84.955597 -49.463131 27.228994
v  -0.34356046 -49.463303 89.229034

# 0 UV coordinates

# 91 vertex normals
vn 48.916725 -56.583366 20.271276
vn -23.727118 -70.203873 -22.669077
vn -49.467312 -35.174278 -48.17886
vn 31.376385 -30.872305 -63.779869
vn -21.262125 -5.9486585 74.283127
vn 26.346062 57.520943 44.751251
vn 17.205851 71.359413 -24.844318
vn 30.749882 63.867859 -31.317568
vn -41.488827 56.024174 -33.844013
vn -53.786095 51.551991 21.328306
vn -5.5129704 55.007671 54.306644
vn 36.922878 29.146799 -61.584194
vn -45.037777 37.144062 -50.964355
vn 43.676224 46.001888 44.515862
vn 14.473462 11.968198 -75.184639
vn 15.90988 -16.098619 -74.115845
vn -61.394218 -17.900482 -43.769524
vn -68.79892 -8.9236374 34.532963
vn -50.282104 -27.362913 52.234364
vn 23.028095 -14.463655 72.566917
vn 34.735062 -29.233891 62.803688
vn 30.221718 -62.88567 -33.726665
vn -28.137875 -62.03178 36.956276
vn 44.293053 -60.450329 -19.73148
vn 28.945539 -55.35688 45.860878
vn -40.389874 -27.611006 -60.097736
vn -17.192675 -7.2160378 75.218269
vn 27.926065 60.715652 39.232555
vn -20.789749 52.662083 52.914459
vn -44.293056 60.450321 -19.731516
vn 23.727097 70.20388 -22.669123
vn -30.221735 62.885658 -33.726677
vn -48.916725 56.583363 20.271267
vn 68.798904 8.9236755 -34.532982
vn 52.276093 25.901665 -51.007477
vn -19.919931 19.93701 -72.188354
vn -31.376413 30.872263 -63.779869
vn -29.856573 31.576803 64.163376
vn 60.391869 17.887133 45.147766
vn 21.857359 10.587523 -73.590813
vn -35.517658 -29.73443 62.127357
vn 47.528709 -19.916563 57.87746
vn 5.5130672 -55.007633 -54.306671
vn -14.557398 -57.842216 -49.47533
vn -30.906477 -66.815392 -24.20623
vn -49.185368 -58.857994 -11.044618
vn -54.876015 -52.804966 14.34247
vn -28.372334 -52.186661 49.769588
vn 53.786144 -51.551918 -21.328337
vn 13.921083 -66.435509 37.389507
vn 40.213058 -55.425713 36.281513
vn -14.983251 -73.502968 -19.449009
vn -5.920742 -74.350349 -21.03372
vn -49.601997 -31.113556 -50.764515
vn 67.514015 -4.7107587 37.75069
vn -14.086432 -16.122282 -74.478813
vn 62.69212 0.69974869 -45.548409
vn 26.005905 56.395264 -46.35424
vn -26.653387 59.677002 -41.637733
vn -30.476616 57.330112 -42.307007
vn -59.197845 46.273441 18.969242
vn 5.9206867 74.350342 21.033796
vn -15.530254 66.035446 37.464378
vn 29.129597 69.93412 16.313599
vn 32.787777 67.865395 18.019335
vn 69.985886 32.643387 -6.4679298
vn 61.581623 14.537635 -44.741589
vn 39.166626 38.28717 -54.822594
vn -15.611129 5.5912747 -75.699921
vn -40.006351 36.341057 -55.536186
vn -66.751854 33.047138 21.389839
vn -7.5345755 30.772633 70.722862
vn 47.694176 30.420746 52.965012
vn 67.170822 5.5912137 38.239605
vn 7.5346427 -30.772663 -70.722839
vn -67.51403 4.710722 -37.750679
vn -64.967445 -18.727697 -37.867577
vn -69.98587 -32.643402 -6.4679174
vn -62.692116 -0.69984293 45.548401
vn -62.693417 0.49053663 45.549351
vn -39.736012 -38.54636 54.227993
vn 14.086414 16.122335 74.478806
vn 15.611122 -5.591259 75.699928
vn 40.006363 -36.341087 55.53616
vn 66.751816 -33.04723 -21.389809
vn 15.530276 -66.035431 -37.46439
vn -39.996746 -64.716759 14.746172
vn -33.102619 -53.561718 45.175293
vn 59.197964 -46.273281 -18.969231
vn 26.653284 -59.677036 41.637749
vn 30.476681 -57.330025 42.307072

# Mesh 'Icosphere.044' with 91 faces
g Icosphere.044
usemtl DefaultMaterial
f  1//1 2//1 3//1
f  2//2 4//2 5//2
f  5//3 4//3 6//3
f  7//4 5//4 8//4
f  9//5 10//5 11//5
f  10//6 12//6 13//6
f  12//7 14//7 13//7
f  12//8 15//8 14//8
f  14//9 16//9 13//9
f  16//10 11//10 13//10
f  11//11 10//11 13//11
f  8//12 14//12 15//12
f  6//13 16//13 14//13
f  17//14 12//14 10//14
f  8//15 6//15 14//15
f  8//16 5//16 6//16
f  6//17 4//17 16//17
f  16//18 4//18 11//18
f  4//19 9//19 11//19
f  10//20 9//20 17//20
f  9//21 1//21 17//21
f  2//22 5//22 7//22
f  2//23 9//23 4//23
f  3//24 2//24 7//24
f  2//25 1//25 9//25
f  18//26 19//26 20//26
f  21//27 22//27 23//27
f  22//28 24//28 25//28
f  26//29 22//29 25//29
f  27//30 28//30 25//30
f  24//31 29//31 25//31
f  29//32 27//32 25//32
f  28//33 26//33 25//33
f  30//34 31//34 24//34
f  31//35 29//35 24//35
f  18//36 20//36 29//36
f  20//37 27//37 29//37
f  23//38 22//38 26//38
f  22//39 30//39 24//39
f  31//40 18//40 29//40
f  32//41 21//41 23//41
f  21//42 30//42 22//42
f  33//43 18//43 31//43
f  33//44 19//44 18//44
f  33//45 34//45 19//45
f  34//46 35//46 19//46
f  34//47 32//47 35//47
f  34//48 21//48 32//48
f  30//49 33//49 31//49
f  34//50 33//50 21//50
f  33//51 30//51 21//51
f  36//52 37//52 38//52
f  36//53 38//53 39//53
f  38//54 37//54 40//54
f  41//55 42//55 43//55
f  38//56 40//56 44//56
f  45//57 44//57 42//57
f  46//58 47//58 48//58
f  48//59 47//59 49//59
f  47//60 50//60 49//60
f  50//61 51//61 49//61
f  49//62 52//62 48//62
f  49//63 51//63 52//63
f  52//64 46//64 48//64
f  52//65 53//65 46//65
f  42//66 46//66 53//66
f  42//67 44//67 46//67
f  44//68 47//68 46//68
f  44//69 40//69 47//69
f  40//70 50//70 47//70
f  54//71 51//71 50//71
f  55//72 52//72 51//72
f  43//73 53//73 52//73
f  43//74 42//74 53//74
f  45//75 38//75 44//75
f  40//76 54//76 50//76
f  40//77 37//77 54//77
f  37//78 56//78 54//78
f  54//79 55//79 51//79
f  54//80 56//80 55//80
f  56//81 57//81 55//81
f  55//82 43//82 52//82
f  55//83 57//83 43//83
f  57//84 41//84 43//84
f  41//85 45//85 42//85
f  39//86 38//86 45//86
f  37//87 36//87 56//87
f  36//88 57//88 56//88
f  41//89 39//89 45//89
f  36//90 39//90 57//90
f  39//91 41//91 57//91

