# File produced by Open Asset Import Library (http://www.assimp.sf.net)
# (assimp v5.0.1588609223)

mtllib result.mtl

# 109 vertex positions
v  115.44838 -68.493599 -21.548388
v  82.670174 -105.08817 -46.081211
v  122.46328 -73.16642 -70.374214
v  33.725864 -89.873878 -72.408592
v  31.164036 -73.282082 -24.05127
v  21.927975 -10.486505 -53.042698
v  84.000366 -58.17556 -114.64134
v  26.447062 -13.824741 -92.436729
v  131.33009 -12.889606 -55.124577
v  72.133186 18.137207 -53.018539
v  86.063339 -0.36638933 -96.820343
v  46.791843 8.5465031 -35.405674
v  57.357182 -69.416992 -0.91828424
v  -49.496906 47.627834 48.104904
v  -65.034683 0.71515995 -15.838874
v  -14.057181 47.627823 -15.612516
v  -89.612305 22.117281 34.900158
v  -126.17588 23.86426 -8.1432085
v  -75.84198 32.636753 -61.191273
v  -110.35352 85.239304 -55.525471
v  -56.539459 73.593262 -66.888069
v  -128.52779 84.984787 22.826952
v  -71.784592 104.08318 39.525425
v  -86.219147 126.83903 -15.838873
v  -25.077982 103.68998 -8.143219
v  -137.68774 60.591068 -8.1432114
v  55.902523 -50.100109 60.075447
v  80.236694 -35.132961 88.45797
v  36.428791 -35.133018 91.989311
v  31.468382 -43.158905 60.075447
v  48.352116 -43.159039 36.837379
v  95.437714 -28.057936 60.075443
v  91.410248 9.0012674 93.091049
v  35.475258 9.0012798 104.0477
v  14.332633 -24.408577 60.075443
v  11.700618 -3.6235261 74.437286
v  97.472374 17.16152 60.075436
v  87.824738 21.603415 35.782085
v  67.820213 42.997894 68.734131
v  36.134964 35.911964 45.713642
v  36.134964 35.911968 74.437225
v  16.3673 20.810877 60.075436
v  100.10443 -3.6235309 45.713593
v  75.670052 -43.159031 45.713657
v  -56.938587 -44.821194 44.452034
v  -80.551277 -84.376877 3.7110443
v  -47.093601 -50.905819 3.7110388
v  -119.87041 -87.215248 24.812075
v  -167.64711 -66.843857 -15.370411
v  -118.0228 -62.702831 -58.424767
v  -138.01279 -14.316936 -73.225662
v  -56.938587 -44.821209 -37.029957
v  -67.464066 -10.164011 -58.983585
v  -113.29479 -50.75526 72.85894
v  -101.64037 8.2398167 80.919167
v  -158.28047 17.811935 65.47345
v  -59.683292 30.577845 42.458199
v  -126.82133 72.036911 13.742272
v  -72.273079 55.757107 3.7110214
v  -108.00599 42.374763 -58.424763
v  -59.683292 30.577831 -35.036152
v  -178.69139 30.426798 -17.923651
v  -193.91043 -14.316971 3.7110372
v  -67.464066 -10.163991 66.40564
v  -178.86476 -50.754917 24.812046
v  148.62721 -35.601955 64.164986
v  135.8244 -81.838852 2.4024308
v  169.03813 -48.217026 -19.232237
v  96.505241 -84.677269 23.503469
v  77.098106 -81.838982 -16.678837
v  184.25723 -3.4730728 2.4024136
v  103.08086 -48.217251 -66.745453
v  50.030117 -48.367859 -36.344757
v  57.810886 -7.6260262 -60.292194
v  128.35956 -3.4731016 -74.534279
v  47.2854 27.031191 43.143406
v  108.36967 44.912815 64.538208
v  70.898109 66.586868 2.402411
v  47.2854 27.031178 -38.338581
v  37.440426 33.115791 2.4024084
v  157.99368 49.053806 -16.678989
v  103.64161 32.96524 -66.745529
v  110.21722 69.42524 -18.698618
v  169.21156 32.965057 23.503418
v  57.810886 -7.6260056 65.097023
v  91.987152 -26.029778 79.610535
v  50.030117 -48.367844 41.149597
v  34.047825 -42.282913 2.4024208
v  -17.714119 -104.7396 29.631384
v  -79.365295 -78.452202 27.025299
v  -32.391216 -75.385551 -69.998299
v  33.023708 -101.07695 2.4024341
v  -93.840973 -57.691154 -24.826529
v  -113.25602 -10.670967 2.4024155
v  -67.645668 -5.3120313 -78.499252
v  75.88298 -57.690971 30.319946
v  95.52182 0.046915781 2.4024134
v  23.390913 0.046961818 101.68222
v  -9.2288895 -57.691311 91.631538
v  -67.278725 30.788355 82.101303
v  23.390942 0.046922259 -96.87738
v  43.873692 -57.691162 -69.572479
v  61.631165 67.828156 27.025213
v  76.106758 47.066994 -24.826578
v  -0.020073986 94.115555 -24.826586
v  -8.505312 47.067158 -86.826653
v  -50.757889 90.452927 2.4024034
v  -93.617157 47.066952 -25.515106
v  14.656964 64.76149 74.803116

# 0 UV coordinates

# 166 vertex normals
vn 31.176874 -33.048756 7.6421375
vn -45.57481 -6.7488379 -0.098837838
vn -23.838585 -12.15847 -37.503506
vn -45.483387 -5.602375 -4.7428837
vn 35.123978 2.3526499 -29.721897
vn 20.555046 39.918453 -10.326056
vn -10.523932 40.020889 -20.253279
vn -20.963949 40.181126 -8.2831144
vn -24.949173 38.248009 -6.1031675
vn 31.931269 8.7380428 -32.041546
vn -6.283957 13.650236 -43.552303
vn 44.717781 -8.4070139 7.2292666
vn 14.130254 -36.317516 -24.576292
vn 2.1517425 -38.000641 -25.960377
vn -19.222113 -39.9062 12.673811
vn -13.951299 -37.922455 22.132973
vn 11.677759 -31.557436 31.470278
vn 29.161758 -31.7668 16.219818
vn -14.674019 -42.329605 10.746972
vn -29.89348 -16.267714 -31.054167
vn 27.955221 -17.639101 -32.093418
vn -14.193048 -0.36846706 43.829685
vn -9.846611 -1.6155661 -44.978374
vn -18.413288 37.15704 20.072989
vn -35.429882 28.307386 -8.1262035
vn -0.13859694 31.844139 -33.294918
vn 16.254137 34.209866 -26.231813
vn 14.106118 41.737324 13.477139
vn 37.017406 10.644904 -25.278803
vn -37.642452 25.116661 -8.6497869
vn -13.431115 1.391656 44.048706
vn 30.740969 16.692532 29.982868
vn 40.034363 4.9033184 22.267176
vn -35.913078 -11.256805 -26.573578
vn -39.039497 -12.236767 21.184866
vn -33.41222 -15.351486 27.759239
vn 25.877253 -27.994604 -25.87064
vn -16.728407 -36.878857 -21.971123
vn 15.71372 -36.652275 23.071831
vn 1.6418681 -41.292728 20.367491
vn -12.109699 -42.628036 12.602587
vn -12.348845 -43.469891 -8.9718676
vn 40.362862 -12.169625 18.583853
vn 3.5733314 -12.034293 44.328629
vn -37.378887 -18.35388 19.712271
vn 29.211061 35.252823 -5.1548443
vn 6.8865638 40.003716 -21.792152
vn -10.05491 44.961304 -7.3251267e-06
vn -33.413677 23.840872 20.922691
vn -2.0551009 34.08382 30.930395
vn 6.7931256 29.55999 34.679688
vn 31.115692 31.211142 13.427513
vn -36.266899 19.224295 20.922682
vn -33.255306 -9.0704126 30.568478
vn 8.7561769 -6.9094229 44.701332
vn 45.314766 -0.0092698922 8.318141
vn 45.042366 -3.2372611 9.1282902
vn -32.711964 -29.895157 12.602668
vn 25.798367 -37.921207 4.3642287
vn 18.839928 -41.640919 5.8061028
vn 31.405937 -31.393373 12.277753
vn -7.6378975 -43.537556 -12.990918
vn -3.8247924 -44.019703 -13.048257
vn -26.03496 -20.539452 -31.983305
vn 18.653776 -18.354065 -37.918133
vn -12.640749 -3.5365427 44.162476
vn 8.6546135 34.388123 29.413851
vn 9.9396124 42.461418 -14.861083
vn 18.305983 37.921284 -18.694572
vn -17.816593 37.462811 -20.043119
vn -32.137825 30.558661 12.487917
vn -3.2776582 32.702908 32.286167
vn 15.206804 38.558273 20.11549
vn 21.951218 17.328239 -36.612782
vn -22.997478 21.031498 -33.932457
vn -39.699352 19.63752 12.686583
vn 24.01243 16.415171 35.72905
vn 8.6046858 7.1153073 -44.698452
vn 9.4586563 -9.570857 -44.063049
vn -37.271465 -0.41602749 -27.079227
vn -36.61129 -8.6427288 -26.599564
vn -41.607738 -19.40699 -3.8451018
vn -39.307007 -2.3815281 23.914591
vn -26.076445 -13.27518 35.586636
vn 13.690566 -8.5988712 43.142181
vn 20.650534 -17.380005 37.337791
vn 18.477108 -35.126446 -23.395493
vn -23.778774 -38.475048 8.7670145
vn -19.680128 -31.843252 26.857399
vn 31.405939 -31.393377 -12.277744
vn 15.845787 -35.478947 24.754303
vn 16.22616 -35.256176 24.826069
vn 35.318302 -26.726137 12.686652
vn 1.2494851 -45.89415 -3.8452156
vn 39.699352 -19.637484 12.686622
vn -21.115801 -17.677607 -36.935688
vn 24.35767 -19.64712 -33.812931
vn -8.9415636 -2.80072 -45.109028
vn 37.271454 0.4159773 -27.07925
vn -18.477098 35.12645 23.395504
vn -31.405947 31.393368 -12.277738
vn 15.460931 33.527882 -27.558311
vn -15.84582 35.478951 -24.754278
vn -16.226158 35.256172 -24.826071
vn -31.405947 31.393372 12.277728
vn 3.8248081 44.019699 13.048263
vn 16.952147 40.991417 12.447845
vn 16.248671 41.396515 12.038663
vn 41.607697 19.40704 -3.8453214
vn 36.61124 8.6428852 -26.599573
vn 23.285215 22.762306 -32.592884
vn -9.2810621 3.3240399 -45.004807
vn -20.650553 17.380013 -37.337784
vn -18.65377 18.354057 37.918133
vn -11.842732 11.852892 42.917114
vn 26.439138 13.055526 35.399788
vn 39.307011 2.3815389 23.914583
vn -24.012432 -16.415161 35.729061
vn 12.994492 6.294466 43.750919
vn 18.118845 -34.08363 -25.152208
vn 7.3626742 -39.432812 -22.659754
vn -16.867775 -31.025791 -29.588825
vn -32.624676 -31.393377 -8.5268087
vn -29.241493 -34.992001 6.5662065
vn -25.405687 -37.204777 9.6424055
vn -12.360957 -31.17457 31.590708
vn 3.7483697 -31.592058 33.324333
vn 15.448802 -36.222282 23.914444
vn -17.317987 -41.576954 -9.6986561
vn -3.5199964 -44.202461 -12.504887
vn -41.607704 -19.407003 3.8453686
vn -28.354965 -18.085592 -31.488523
vn 37.271446 0.41598752 27.079254
vn -10.350519 -1.9597872 44.851372
vn -8.3746119 -9.5849972 -44.278824
vn 37.271454 0.4161123 -27.079248
vn 23.778725 38.475117 -8.7668476
vn 19.680046 31.843252 -26.857452
vn -15.845817 35.478909 -24.754335
vn -18.118872 34.083591 -25.152248
vn -35.318325 26.726097 12.686658
vn 3.5200217 44.202457 12.50489
vn -12.987171 36.635651 24.734236
vn 8.9077644 43.698677 11.562761
vn 37.272221 -0.29164788 -27.079815
vn 23.623686 22.916428 -32.239399
vn -9.2810755 3.3240838 -45.004803
vn -23.784407 21.60537 -33.017117
vn -39.699333 19.637506 12.686638
vn -3.3537495 17.238529 42.593487
vn 30.054197 16.776396 30.625439
vn 36.611244 8.6428423 26.599588
vn 41.607708 19.407011 3.8452721
vn 4.4793816 -18.294825 -42.04586
vn -40.138149 2.8006561 -22.443377
vn -39.934113 -3.3240693 -22.734049
vn -36.943592 -9.024374 26.006769
vn -27.330431 -14.242253 34.24654
vn 24.357727 -19.647053 33.812935
vn 39.68502 -19.647102 -12.716537
vn 9.2329569 -39.259113 -22.273176
vn -19.492849 -40.347069 -10.712746
vn -15.460867 -33.527908 27.558317
vn 35.194149 -27.510187 -11.277475
vn 15.845784 -35.478962 24.754284
vn 18.118896 -34.083603 25.152212

# Mesh 'Icosphere.045' with 166 faces
g Icosphere.045
usemtl DefaultMaterial
f  1//1 2//1 3//1
f  4//2 5//2 6//2
f  7//3 4//3 8//3
f  4//4 6//4 8//4
f  3//5 7//5 9//5
f  10//6 9//6 11//6
f  11//7 8//7 10//7
f  8//8 12//8 10//8
f  8//9 6//9 12//9
f  7//10 11//10 9//10
f  7//11 8//11 11//11
f  1//12 3//12 9//12
f  2//13 7//13 3//13
f  2//14 4//14 7//14
f  4//15 2//15 5//15
f  2//16 13//16 5//16
f  2//17 1//17 13//17
f  14//18 15//18 16//18
f  15//19 17//19 18//19
f  19//20 18//20 20//20
f  16//21 19//21 21//21
f  17//22 14//22 22//22
f  19//23 20//23 21//23
f  22//24 23//24 24//24
f  20//25 22//25 24//25
f  21//26 20//26 24//26
f  25//27 21//27 24//27
f  23//28 25//28 24//28
f  16//29 21//29 25//29
f  26//30 22//30 20//30
f  22//31 14//31 23//31
f  14//32 25//32 23//32
f  14//33 16//33 25//33
f  20//34 18//34 26//34
f  26//35 18//35 22//35
f  18//36 17//36 22//36
f  15//37 19//37 16//37
f  15//38 18//38 19//38
f  17//39 15//39 14//39
f  27//40 28//40 29//40
f  27//41 29//41 30//41
f  27//42 30//42 31//42
f  28//43 32//43 33//43
f  29//44 28//44 34//44
f  35//45 29//45 36//45
f  37//46 38//46 39//46
f  38//47 40//47 39//47
f  40//48 41//48 39//48
f  42//49 34//49 41//49
f  41//50 34//50 39//50
f  34//51 33//51 39//51
f  33//52 37//52 39//52
f  36//53 34//53 42//53
f  36//54 29//54 34//54
f  34//55 28//55 33//55
f  33//56 43//56 37//56
f  33//57 32//57 43//57
f  30//58 29//58 35//58
f  32//59 28//59 44//59
f  28//60 27//60 44//60
f  45//61 46//61 47//61
f  48//62 49//62 50//62
f  48//63 50//63 46//63
f  50//64 49//64 51//64
f  52//65 50//65 53//65
f  54//66 55//66 56//66
f  55//67 57//67 58//67
f  59//68 60//68 58//68
f  59//69 61//69 60//69
f  60//70 62//70 58//70
f  62//71 56//71 58//71
f  56//72 55//72 58//72
f  58//73 57//73 59//73
f  53//74 60//74 61//74
f  51//75 62//75 60//75
f  63//76 56//76 62//76
f  64//77 57//77 55//77
f  53//78 51//78 60//78
f  53//79 50//79 51//79
f  51//80 63//80 62//80
f  51//81 49//81 63//81
f  49//82 65//82 63//82
f  63//83 65//83 56//83
f  65//84 54//84 56//84
f  55//85 54//85 64//85
f  54//86 45//86 64//86
f  46//87 50//87 52//87
f  49//88 48//88 65//88
f  48//89 54//89 65//89
f  47//90 46//90 52//90
f  48//91 46//91 54//91
f  46//92 45//92 54//92
f  66//93 67//93 68//93
f  69//94 70//94 67//94
f  66//95 68//95 71//95
f  72//96 73//96 74//96
f  68//97 72//97 75//97
f  72//98 74//98 75//98
f  68//99 75//99 71//99
f  76//100 77//100 78//100
f  79//101 80//101 78//101
f  81//102 82//102 83//102
f  83//103 82//103 78//103
f  82//104 79//104 78//104
f  80//105 76//105 78//105
f  78//106 77//106 83//106
f  77//107 81//107 83//107
f  77//108 84//108 81//108
f  71//109 81//109 84//109
f  71//110 75//110 81//110
f  75//111 82//111 81//111
f  75//112 74//112 82//112
f  74//113 79//113 82//113
f  85//114 77//114 76//114
f  85//115 86//115 77//115
f  66//116 84//116 77//116
f  66//117 71//117 84//117
f  87//118 86//118 85//118
f  86//119 66//119 77//119
f  67//120 72//120 68//120
f  67//121 70//121 72//121
f  70//122 73//122 72//122
f  70//123 88//123 73//123
f  70//124 87//124 88//124
f  70//125 69//125 87//125
f  69//126 86//126 87//126
f  69//127 66//127 86//127
f  69//128 67//128 66//128
f  89//129 90//129 91//129
f  89//130 91//130 92//130
f  93//131 90//131 94//131
f  91//132 93//132 95//132
f  96//133 97//133 98//133
f  99//134 98//134 100//134
f  91//135 95//135 101//135
f  102//136 101//136 97//136
f  103//137 104//137 105//137
f  104//138 106//138 105//138
f  105//139 106//139 107//139
f  106//140 108//140 107//140
f  108//141 100//141 107//141
f  107//142 109//142 105//142
f  107//143 100//143 109//143
f  109//144 103//144 105//144
f  97//145 101//145 104//145
f  101//146 106//146 104//146
f  101//147 95//147 106//147
f  95//148 108//148 106//148
f  94//149 100//149 108//149
f  98//150 109//150 100//150
f  98//151 103//151 109//151
f  98//152 97//152 103//152
f  97//153 104//153 103//153
f  102//154 91//154 101//154
f  95//155 94//155 108//155
f  95//156 93//156 94//156
f  94//157 90//157 100//157
f  90//158 99//158 100//158
f  99//159 96//159 98//159
f  96//160 102//160 97//160
f  92//161 91//161 102//161
f  91//162 90//162 93//162
f  89//163 99//163 90//163
f  96//164 92//164 102//164
f  89//165 92//165 99//165
f  92//166 96//166 99//166

