v  -32.842308 -20.297506 5.4849806
v  -54.301437 -57.285976 -29.802429
v  -8.9747 -15.573499 -43.286385
v  -108.66521 -36.70298 -36.645039
v  -67.135902 -37.052597 -79.029655
v  -94.596687 17.868828 -78.775047
v  -47.241413 22.917347 -87.359131
v  -63.528286 26.47414 10.522731
v  -18.773855 34.274246 -36.645058
v  -73.137619 54.857269 -29.802452
v  -118.46433 13.144832 -30.003717
v  -80.691124 -9.9424191 15.588041
v  125.46127 -39.610668 100.15279
v  117.75997 -70.405579 49.065613
v  148.18127 -39.610603 29.249985
v  81.746674 -73.005264 68.392487
v  63.971298 -70.405663 31.588669
v  162.12071 1.3713679 49.06559
v  51.007378 -39.610611 100.45509
v  110.92277 1.3713959 119.53363
v  27.712442 -39.610622 29.73875
v  13.931811 -6.236104 49.065601
v  87.769485 -39.610767 -14.268461
v  46.305676 -2.432343 -8.3577862
v  110.92281 1.3713874 -21.40242
v  46.566116 23.191448 105.63525
v  148.34004 34.745926 29.738674
v  88.283043 34.746094 -14.268513
v  112.08116 65.540985 31.588657
v  58.292473 65.540855 49.065598
v  94.305832 68.14061 68.392494
v  27.871235 34.745892 29.250008
v  125.04522 34.745899 100.45509
v  171.5582 -62.03973 54.499638
v  159.83188 -104.38927 -2.0700634
v  190.25311 -73.594208 -21.885731
v  123.81855 -106.98901 17.256811
v  106.04317 -104.38938 -19.546993
v  204.19257 -32.612389 -2.0700715
v  93.079208 -73.594322 49.319477
v  140.51588 -19.559587 68.646553
v  69.784294 -73.59433 -21.396914
v  56.003685 -40.219837 -2.0700681
v  129.84135 -73.59449 -65.404152
v  107.20158 -40.219826 -72.538094
v  171.81871 -36.416073 -59.49345
v  88.638031 -10.792291 54.499611
v  190.41188 0.76212537 17.256813
v  136.37769 34.156879 17.256813
v  180.13721 15.498143 -19.547188
v  134.68542 11.705378 -58.981647
v  100.36435 31.557121 -2.0700822
v  69.943085 0.762119 -21.885645
v  -142.15552 -86.069695 -21.396994
v  -106.14218 -83.469925 -2.0700815
v  -152.57317 -65.234451 49.319378
v  -98.441002 -52.675068 49.017105
v  -75.72097 -52.674976 -21.885675
v  -185.91508 -67.411011 15.407014
v  -61.781509 -11.693077 -2.0700917
v  -112.9794 -11.693006 68.397919
v  -196.18976 -52.675064 -21.39699
v  -209.9704 -19.300552 -2.0700891
v  -136.13274 -52.675152 -65.404175
v  -177.59653 -15.496774 -59.493469
v  -112.97939 -11.693049 -72.538101
v  -177.33603 10.126965 54.49955
v  -85.836868 36.417561 15.407001
v  -75.56218 21.68148 -21.39702
v  -129.59641 55.076176 -21.396992
v  -135.61916 21.681688 -65.404205
v  -165.6097 52.476406 -2.0701036
v  -196.03111 21.681345 -21.885733
v  -119.17876 34.240883 49.319416
v  -41.311695 9.2026253 46.764462
v  -66.185814 -33.672131 5.8614674
v  -22.58037 9.4649 -33.989471
v  -13.139645 34.606243 -2.0700867
v  -109.0597 -0.7720387 42.292618
v  -68.10939 45.874203 58.976974
v  -129.16934 -0.77200961 -18.754297
v  -141.06569 28.038998 -2.0700853
v  -77.324341 -0.7721135 -56.744057
v  -96.868416 28.039 -62.902531
v  -112.89365 53.44268 46.76445
v  -25.035995 63.417316 14.614145
v  -88.019592 96.317398 5.8614483
v  -33.905743 76.138344 -17.15744
v  -73.142624 72.864113 -51.199741
v  -129.0323 63.417049 -19.17614
v  -97.868507 -27.35619 -17.157307
v  -37.327049 -64.513039 46.764446
v  -62.201145 -107.38779 -10.001601
v  -18.595737 -64.250778 -33.989487
v  -87.532112 -85.329674 42.292583
v  -125.21626 -83.529266 -2.0700798
v  -9.1549997 -39.109409 -2.0700791
v  -92.883797 -45.676643 58.762356
v  -73.339722 -74.487762 -56.744091
v  -92.883766 -45.67667 -62.902534
v  -29.921091 2.4226995 -17.157427
v  -72.896355 -10.298255 -56.744095
v  -84.034935 22.601751 -10.001627
v  -125.04764 -10.298464 -19.176121
v  -105.43431 -10.298376 42.03162
v  -58.703949 0.54365605 42.292568
v  -21.051355 -10.298386 14.614147
v  -137.08104 -45.676666 -2.0700793
v  121.0918 -2.791249 5.8614645
v  66.978043 17.38777 13.01728
v  95.760849 19.266815 -46.432697
v  58.108261 30.108858 -18.754246
v  46.211945 58.919872 -2.0700762
v  74.383965 84.323586 -50.904587
v  162.10454 30.108923 15.035957
v  174.13795 65.487068 -2.0700762
v  129.94075 65.487137 58.762375
v  109.95329 30.108763 52.603912
v  55.652664 84.06131 29.849329
v  129.9407 65.487114 -62.902515
v  142.49118 30.108913 -46.171726
v  110.39661 94.29834 52.603924
v  162.24159 94.298172 14.614197
v  99.258049 127.19829 5.861434
v  153.37198 107.01939 -17.157347
v  124.58899 105.14023 -46.432766
v  12.669848 -95.001228 -29.298985
v  63.407639 -91.338539 -2.0700622
v  5.2713056 -80.639038 47.929451
v  -48.981377 -68.713783 22.552732
v  -63.456978 -47.95282 -29.299002
v  -82.871994 -0.93261361 -2.0700765
v  6.8397403 -19.32202 -101.7001
v  -37.261658 4.4263754 -82.971741
v  106.26701 -47.952694 25.847353
v  125.90582 9.7852573 -2.0700748
v  80.295509 4.4264016 78.831589
v  74.257698 -47.952789 -74.044884
v  80.295509 4.4263754 -82.971741
v  21.878666 56.805691 87.158875
v  92.015091 77.566444 22.552689
v  30.363901 103.854 25.158857
v  -63.233261 56.805405 25.847397
v  -20.373926 100.1913 -2.0700951
v  -31.223917 56.805508 -74.044952
v  45.040997 74.49987 -74.470833
v  106.49077 56.805435 -29.299116
v  -10.741209 -0.93253666 97.209686
v  21.155138 -47.952881 87.158966
vn 28.432135 -27.25111 11.274497
vn -12.542457 -37.110817 -11.983232
vn -27.633909 -13.691991 -26.963314
vn 23.644323 -12.17168 -31.159588
vn -6.9437275 -3.2853436 -40.238228
vn 14.874076 32.79092 19.535646
vn -23.008799 24.891466 23.002907
vn -26.824076 29.198008 -10.298991
vn 11.882158 36.303043 -14.799558
vn -7.5920382 33.652481 -22.090614
vn 33.815086 9.4585962 -21.099731
vn -24.856436 15.683806 28.535936
vn 26.579849 14.46447 27.611856
vn 36.368114 4.7172012 18.254648
vn -36.368099 -4.717164 -18.254677
vn -32.914093 -9.4648952 22.476704
vn 8.7551279 1.4364917 39.992599
vn 21.931629 -29.615196 -17.890429
vn -14.452384 -30.417757 23.324076
vn 0.12323601 -28.314266 29.604237
vn 31.292864 -24.460808 10.027424
vn 1.1109231 -40.80687 -3.4189019
vn 35.286011 -17.469196 11.306997
vn 0.15043084 -17.469362 37.052971
vn -33.753666 -20.376045 11.118925
vn -21.385342 -19.210508 -29.18471
vn 21.657656 -17.469267 -30.064837
vn 33.139969 0.3699663 24.077566
vn -9.8857841 -3.9618902 39.556267
vn -7.9503999 -2.4902587 -40.108772
vn 33.139977 0.3698802 -24.077555
vn 19.422447 24.460789 -26.505888
vn -1.1109945 40.806866 -3.4189568
vn -6.5465322 35.061756 -20.147949
vn -16.110418 30.305517 -22.364119
vn -31.403294 23.763607 11.280408
vn -13.7363 32.2071 21.263599
vn -2.0190203 27.354456 30.426655
vn 24.335802 31.546162 9.5253429
vn 26.178827 30.305548 8.6236181
vn 33.140678 -0.25929275 -24.078041
vn 21.00506 20.376162 -28.665718
vn -8.2522612 2.9555864 -40.016102
vn -21.14797 19.210421 -29.357225
vn -35.298767 17.460644 11.280375
vn -0.68610823 20.545822 35.433346
vn 33.140667 -0.25927797 24.078054
vn 33.753681 20.376055 11.118867
vn -35.688911 2.4901552 -19.955564
vn -35.507488 -2.9556184 -20.214012
vn -34.299789 -4.2396626 21.992575
vn 16.110376 -30.305525 -22.36413
vn 6.5465055 -35.061749 -20.147968
vn -19.422453 -24.460747 -26.50592
vn -26.178806 -30.305548 8.6236677
vn -24.335785 -31.546165 9.5253782
vn 0.12018186 -28.31348 29.605
vn 12.523184 -34.21022 18.733784
vn 31.403351 -23.763536 11.280397
vn 1.1109662 -40.806866 -3.4189482
vn 35.29871 -17.460747 11.280396
vn -0.59359157 -13.331882 38.730251
vn -33.753677 -20.376034 11.118905
vn -21.005047 -20.376198 -28.665697
vn 21.147961 -19.210436 -29.357225
vn -11.358062 -4.0325871 39.151711
vn 35.6889 -2.4901662 -19.955578
vn 16.435114 26.592749 26.473314
vn 6.7913766 38.711468 -11.550898
vn 3.400785 39.14019 -11.601905
vn -17.248514 30.600891 -21.076006
vn -31.403297 23.763601 11.280414
vn -13.736303 32.207096 21.263599
vn -3.3329079 28.090164 29.63036
vn 21.142937 34.210209 7.7949529
vn 36.995552 17.255808 -3.4190643
vn 34.342747 9.8997469 -20.017351
vn 23.177244 18.18762 -28.463127
vn -20.448263 18.700167 -30.171112
vn -35.298759 17.460642 11.280396
vn 26.615103 9.581336 29.63035
vn 34.949883 2.1175566 21.263716
vn 7.6508751 6.3265591 -39.74371
vn 8.2522736 -2.9556334 -40.016098
vn -33.139984 -0.36989447 -24.077549
vn -33.140675 0.25930217 -24.078047
vn -34.299797 -4.2396111 21.992575
vn 16.110432 -30.305498 -22.364132
vn 6.546514 -35.061756 -20.147949
vn -19.422459 -24.460756 -26.505909
vn -26.17881 -30.305546 8.6236515
vn -24.335783 -31.546171 9.5253582
vn 2.0190713 -27.354464 30.426636
vn 13.736301 -32.207058 21.263662
vn -3.1297452 -39.302696 11.118741
vn 31.292894 -24.460762 10.027437
vn -7.9204817 -38.85474 10.281013
vn 35.285992 -17.469234 11.307
vn 3.982887 -16.266869 37.385151
vn -36.995564 -17.255783 3.4191177
vn -21.385344 -19.210497 -29.184713
vn 21.657679 -17.46928 -30.064812
vn 33.139988 0.36990246 24.077549
vn -10.530282 -6.1483221 39.10799
vn -7.950398 -2.4902172 -40.108772
vn 33.13998 0.36985445 -24.077549
vn 21.142895 34.210228 -7.7950048
vn 17.498554 28.313519 -23.880302
vn -14.089341 31.546181 -22.010286
vn -16.110422 30.305527 -22.364101
vn -31.403265 23.763636 11.280457
vn 3.1297758 39.302689 11.118757
vn -11.54763 32.574642 21.992468
vn 7.9203839 38.854748 10.281041
vn 33.140671 -0.25930819 -24.078051
vn 21.005085 20.376144 -28.665709
vn -8.2522564 2.9555569 -40.016102
vn -21.147964 19.210394 -29.357252
vn -35.298759 17.460604 11.280449
vn -2.9820211 15.32761 37.872093
vn 26.722773 14.916748 27.23064
vn 32.552956 7.684823 23.651052
vn 36.995567 17.255772 3.4190605
vn -35.688904 2.4900157 -19.955584
vn -35.507488 -2.9555967 -20.214024
vn -32.848446 -8.0240202 23.123974
vn -27.771347 -11.050918 28.013447
vn 16.110407 -30.305519 -22.364126
vn 14.08936 -31.546143 -22.010324
vn -17.49852 -28.313511 -23.880341
vn -21.142876 -34.210258 -7.7949219
vn 8.2095366 -34.90731 19.80422
vn 31.502525 -25.169579 7.2254381
vn 33.46983 -22.332563 7.6909795
vn -0.59359235 -13.331868 38.730259
vn -33.75367 -20.376064 11.11889
vn -21.005032 -20.376194 -28.665714
vn -11.35805 -4.0325975 39.151707
vn 12.567355 30.515373 24.269262
vn 8.4215708 37.804405 -13.342696
vn -15.841697 33.310112 -17.82136
vn -28.575401 27.171276 11.103704
vn -2.9142768 29.077848 28.70731
vn 17.405878 35.847301 9.4936676
vn 36.995567 17.255774 -3.4190989
vn 34.863461 10.641166 -18.693014
vn 25.125105 11.866816 -30.100359
vn -20.448292 18.700186 -30.17108
vn -35.298737 17.460707 11.280365
vn 26.615078 9.5813026 29.630386
vn 34.949898 2.1175134 21.263695
vn 15.243112 1.8471437 -37.978409
vn 15.331714 2.2951384 -37.918262
vn -33.139977 -0.36988801 -24.077562
vn -33.140659 0.25930089 -24.07806
vn -34.299789 -4.239634 21.992584
vn 14.378746 -32.842705 -19.817476
vn 7.3589001 -35.118786 -19.764643
vn -19.422445 -24.460737 -26.505941
vn -26.178837 -30.305527 8.6236391
vn -16.304419 -35.354946 12.74039
vn 2.3527412 -28.936668 28.90082
vn 30.257393 -26.73139 6.9315543
vn -13.047386 -37.637451 9.5557175
vn 33.469814 -22.332575 7.6909804
vn 2.9819796 -15.327608 37.872101
vn -23.478907 -21.446941 -25.824278
vn 9.7071123 33.59684 -21.334196
vn -17.317093 28.29064 -24.039165
vn -26.215199 30.336809 8.4003086
vn -8.3097477 35.360077 18.940348
vn 14.98054 37.184319 8.4281559
vn 17.332117 35.874649 9.5252819
vn 36.995567 17.255777 -3.4190547
vn 34.863461 10.641156 -18.693018
vn 24.599625 11.884605 -30.524387
vn -21.657715 17.469242 -30.06481
vn -35.286022 17.469189 11.306971
vn -3.9828813 16.266876 37.385143
vn 25.369316 10.427553 30.42676
vn 34.949894 2.1175199 21.263691
vn 14.513317 -1.5364449 -38.27697
vn 15.331717 2.2951698 -37.918262
vn -33.139977 -0.36986479 -24.077555
vn -32.124542 -10.069341 -23.339794
vn -33.13998 -0.36997071 24.077553
vn -32.124538 -10.069337 23.339804
vn -29.571671 -14.185424 24.544117
vn 10.530253 6.1483307 39.107998
vn 15.521988 -29.161272 -24.224199
vn -14.874053 -32.790909 -19.535671
vn 12.143131 -33.5942 20.052376
vn -14.98054 -37.184319 -8.4281445
vn -36.995567 -17.255768 3.419107
vn -25.369329 -10.427544 -30.426752
vn 33.140007 0.36982575 24.077524
vn -14.513309 1.5364399 38.276978
vn -10.530279 -6.1483407 -39.10799
vn 33.13998 0.36989769 -24.077555
vn 14.438953 32.884022 19.704857
vn -15.522019 29.161289 24.224163
vn -30.257385 26.731407 -6.9315443
vn 9.3018847 38.172497 -11.595661
vn -12.14318 33.594208 -20.052338
vn 17.40583 35.847256 9.4939423
vn 36.995621 17.255688 -3.4189074
vn 32.552979 7.684731 -23.651049
vn 26.722712 14.916742 -27.230703
vn -2.9819946 15.327551 -37.872124
vn -33.469872 22.332497 -7.6909814
vn -15.331717 -2.2951908 37.918259
vn 21.005047 20.376173 28.665718
vn 33.140678 -0.25929961 24.078037
vn 3.9829364 -16.266924 -37.38512
vn -34.949894 -2.1175222 -21.263691
vn -34.863449 -10.64116 18.693033
vn -24.599613 -11.884598 30.524403
vn 21.65769 -17.469292 30.064796
vn 35.285988 -17.469242 -11.307003
vn 8.3098068 -35.360058 -18.940355
vn -17.332123 -35.874649 -9.5252705
vn -9.7070961 -33.596832 21.334213
vn 26.215166 -30.336823 -8.4003658
vn 17.317066 -28.290659 24.039169
vn -1.0578859 -40.279053 7.3893547
vn -11.411476 -38.86227 6.1339927
vn -36.995575 -17.255745 3.4191337
vn -22.275991 -18.531391 -28.956715
vn 35.688911 -2.490217 19.955549
vn 35.30798 -7.3791804 -19.416954
vn 13.747134 29.811337 24.50355
vn -16.110401 30.30551 22.364141
vn -31.292898 24.460766 -10.027421
vn 15.398383 36.968197 -8.6235867
vn 17.332102 35.874672 -9.5252314
vn 3.1297989 39.302689 -11.118771
vn -8.2095032 34.907299 -19.804247
vn -14.089329 31.54615 22.01034
vn 35.5075 2.9555793 -20.213995
vn 25.211851 16.080843 -27.998083
vn -3.1298869 12.554715 -38.867809
vn -12.020869 7.9218168 -38.351883
vn -35.28603 17.46917 -11.306983
vn -21.657648 17.469292 30.064831
vn 21.320625 19.121601 29.290255
vn 34.342754 9.8997831 20.017324
vn 36.995552 17.255791 3.4191241
vn 7.3126683 8.4599485 -39.409111
vn 12.319938 -7.9395499 -38.253189
vn -35.307987 7.3791103 -19.41696
vn -35.507484 -2.9555888 -20.21402
vn -33.139988 -0.36989272 24.077549
vn -32.552959 -7.6847963 23.651054
vn -20.704023 -20.239176 28.980043
vn 7.9503918 2.4902864 40.108772
vn 8.2522593 -2.9556041 40.016102
vn 21.147959 -19.210443 29.35722
vn 35.286011 -17.469217 -11.306973
vn 12.523228 -34.21022 -18.733753
vn 0.12012464 -28.313433 -29.605053
vn -16.435024 -26.592758 -26.473364
vn -21.142853 -34.210262 -7.7949615
vn -18.215513 -24.224264 27.559099
vn 31.292864 -24.460814 -10.027414
vn 12.755167 -32.291725 21.741068
vn 16.110397 -30.305515 22.364134
f  1//1 2//1 3//1
f  2//2 4//2 5//2
f  5//3 4//3 6//3
f  3//4 5//4 7//4
f  5//5 6//5 7//5
f  8//6 9//6 10//6
f  11//7 8//7 10//7
f  6//8 11//8 10//8
f  9//9 7//9 10//9
f  7//10 6//10 10//10
f  3//11 7//11 9//11
f  12//12 8//12 11//12
f  1//13 9//13 8//13
f  1//14 3//14 9//14
f  6//15 4//15 11//15
f  11//16 4//16 12//16
f  12//17 1//17 8//17
f  2//18 5//18 3//18
f  2//19 12//19 4//19
f  2//20 1//20 12//20
f  13//21 14//21 15//21
f  16//22 17//22 14//22
f  13//23 15//23 18//23
f  19//24 13//24 20//24
f  21//25 19//25 22//25
f  23//26 21//26 24//26
f  15//27 23//27 25//27
f  13//28 18//28 20//28
f  19//29 20//29 26//29
f  23//30 24//30 25//30
f  15//31 25//31 18//31
f  27//32 28//32 29//32
f  29//33 30//33 31//33
f  29//34 28//34 30//34
f  28//35 32//35 30//35
f  32//36 26//36 30//36
f  30//37 26//37 31//37
f  26//38 33//38 31//38
f  31//39 33//39 29//39
f  33//40 27//40 29//40
f  18//41 25//41 27//41
f  25//42 28//42 27//42
f  25//43 24//43 28//43
f  24//44 32//44 28//44
f  22//45 26//45 32//45
f  20//46 33//46 26//46
f  20//47 18//47 33//47
f  18//48 27//48 33//48
f  24//49 22//49 32//49
f  24//50 21//50 22//50
f  22//51 19//51 26//51
f  14//52 23//52 15//52
f  14//53 17//53 23//53
f  17//54 21//54 23//54
f  17//55 19//55 21//55
f  17//56 16//56 19//56
f  16//57 13//57 19//57
f  16//58 14//58 13//58
f  34//59 35//59 36//59
f  37//60 38//60 35//60
f  34//61 36//61 39//61
f  40//62 34//62 41//62
f  42//63 40//63 43//63
f  44//64 42//64 45//64
f  36//65 44//65 46//65
f  40//66 41//66 47//66
f  36//67 46//67 39//67
f  41//68 48//68 49//68
f  50//69 51//69 49//69
f  51//70 52//70 49//70
f  51//71 53//71 52//71
f  53//72 47//72 52//72
f  52//73 47//73 49//73
f  47//74 41//74 49//74
f  49//75 48//75 50//75
f  39//76 50//76 48//76
f  39//77 46//77 50//77
f  46//78 51//78 50//78
f  45//79 53//79 51//79
f  43//80 47//80 53//80
f  34//81 48//81 41//81
f  34//82 39//82 48//82
f  46//83 45//83 51//83
f  46//84 44//84 45//84
f  45//85 43//85 53//85
f  45//86 42//86 43//86
f  43//87 40//87 47//87
f  35//88 44//88 36//88
f  35//89 38//89 44//89
f  38//90 42//90 44//90
f  38//91 40//91 42//91
f  38//92 37//92 40//92
f  37//93 34//93 40//93
f  37//94 35//94 34//94
f  54//95 55//95 56//95
f  57//96 55//96 58//96
f  54//97 56//97 59//97
f  57//98 58//98 60//98
f  56//99 57//99 61//99
f  62//100 59//100 63//100
f  64//101 62//101 65//101
f  58//102 64//102 66//102
f  57//103 60//103 61//103
f  56//104 61//104 67//104
f  64//105 65//105 66//105
f  58//106 66//106 60//106
f  68//107 69//107 70//107
f  69//108 71//108 70//108
f  70//109 71//109 72//109
f  71//110 73//110 72//110
f  73//111 67//111 72//111
f  72//112 74//112 70//112
f  72//113 67//113 74//113
f  74//114 68//114 70//114
f  60//115 66//115 69//115
f  66//116 71//116 69//116
f  66//117 65//117 71//117
f  65//118 73//118 71//118
f  63//119 67//119 73//119
f  61//120 74//120 67//120
f  61//121 68//121 74//121
f  61//122 60//122 68//122
f  60//123 69//123 68//123
f  65//124 63//124 73//124
f  65//125 62//125 63//125
f  63//126 59//126 67//126
f  59//127 56//127 67//127
f  55//128 64//128 58//128
f  55//129 54//129 64//129
f  54//130 62//130 64//130
f  54//131 59//131 62//131
f  56//132 55//132 57//132
f  75//133 76//133 77//133
f  75//134 77//134 78//134
f  79//135 75//135 80//135
f  81//136 79//136 82//136
f  83//137 81//137 84//137
f  79//138 80//138 85//138
f  80//139 86//139 87//139
f  88//140 89//140 87//140
f  89//141 90//141 87//141
f  90//142 85//142 87//142
f  85//143 80//143 87//143
f  87//144 86//144 88//144
f  78//145 88//145 86//145
f  78//146 77//146 88//146
f  77//147 89//147 88//147
f  84//148 90//148 89//148
f  82//149 85//149 90//149
f  75//150 86//150 80//150
f  75//151 78//151 86//151
f  77//152 84//152 89//152
f  77//153 83//153 84//153
f  84//154 82//154 90//154
f  84//155 81//155 82//155
f  82//156 79//156 85//156
f  76//157 83//157 77//157
f  76//158 91//158 83//158
f  91//159 81//159 83//159
f  91//160 79//160 81//160
f  91//161 76//161 79//161
f  76//162 75//162 79//162
f  92//163 93//163 94//163
f  93//164 95//164 96//164
f  92//165 94//165 97//165
f  95//166 92//166 98//166
f  99//167 96//167 100//167
f  101//168 102//168 103//168
f  102//169 104//169 103//169
f  104//170 105//170 103//170
f  103//171 105//171 106//171
f  106//172 101//172 103//172
f  106//173 107//173 101//173
f  97//174 101//174 107//174
f  97//175 94//175 101//175
f  94//176 102//176 101//176
f  100//177 104//177 102//177
f  108//178 105//178 104//178
f  98//179 106//179 105//179
f  92//180 107//180 106//180
f  92//181 97//181 107//181
f  94//182 100//182 102//182
f  94//183 99//183 100//183
f  100//184 108//184 104//184
f  100//185 96//185 108//185
f  108//186 98//186 105//186
f  108//187 96//187 98//187
f  96//188 95//188 98//188
f  98//189 92//189 106//189
f  93//190 99//190 94//190
f  93//191 96//191 99//191
f  95//192 93//192 92//192
f  109//193 110//193 111//193
f  112//194 110//194 113//194
f  111//195 112//195 114//195
f  115//196 116//196 117//196
f  118//197 117//197 119//197
f  111//198 114//198 120//198
f  121//199 120//199 116//199
f  122//200 123//200 124//200
f  119//201 122//201 124//201
f  114//202 119//202 124//202
f  125//203 126//203 124//203
f  126//204 114//204 124//204
f  124//205 123//205 125//205
f  116//206 125//206 123//206
f  116//207 120//207 125//207
f  120//208 126//208 125//208
f  120//209 114//209 126//209
f  113//210 119//210 114//210
f  119//211 117//211 122//211
f  117//212 123//212 122//212
f  117//213 116//213 123//213
f  121//214 111//214 120//214
f  114//215 112//215 113//215
f  113//216 110//216 119//216
f  110//217 118//217 119//217
f  118//218 115//218 117//218
f  115//219 121//219 116//219
f  109//220 111//220 121//220
f  111//221 110//221 112//221
f  109//222 118//222 110//222
f  115//223 109//223 121//223
f  109//224 115//224 118//224
f  127//225 128//225 129//225
f  127//226 129//226 130//226
f  131//227 130//227 132//227
f  133//228 131//228 134//228
f  135//229 136//229 137//229
f  138//230 139//230 136//230
f  140//231 141//231 142//231
f  143//232 140//232 144//232
f  145//233 143//233 144//233
f  141//234 146//234 142//234
f  141//235 147//235 146//235
f  146//236 144//236 142//236
f  146//237 145//237 144//237
f  144//238 140//238 142//238
f  136//239 139//239 147//239
f  139//240 146//240 147//240
f  133//241 145//241 146//241
f  133//242 134//242 145//242
f  132//243 143//243 145//243
f  148//244 140//244 143//244
f  137//245 141//245 140//245
f  137//246 136//246 141//246
f  136//247 147//247 141//247
f  139//248 133//248 146//248
f  139//249 138//249 133//249
f  134//250 132//250 145//250
f  134//251 131//251 132//251
f  132//252 148//252 143//252
f  132//253 130//253 148//253
f  130//254 149//254 148//254
f  148//255 137//255 140//255
f  148//256 149//256 137//256
f  149//257 135//257 137//257
f  135//258 138//258 136//258
f  128//259 127//259 138//259
f  127//260 133//260 138//260
f  127//261 131//261 133//261
f  127//262 130//262 131//262
f  129//263 149//263 130//263
f  135//264 128//264 138//264
f  129//265 128//265 149//265
f  128//266 135//266 149//266

