# File produced by Open Asset Import Library (http://www.assimp.sf.net)
# (assimp v5.0.1588609223)

mtllib result.mtl

# 127 vertex positions
v  -71.858437 -67.748421 -60.682289
v  -126.01066 -47.245487 -67.498268
v  -93.626701 -48.792797 -105.62141
v  -104.38302 2.4082055 -117.31676
v  -81.049393 15.685683 -20.514059
v  -36.469143 23.455462 -67.498276
v  -90.621323 43.958378 -60.682308
v  -135.77167 2.408273 -60.882778
v  -68.853096 25.002708 -105.62144
v  -26.273119 -9.0732813 -67.498276
v  -50.482849 -30.903963 -109.46436
v  -91.491478 -28.482567 -13.890039
v  -34.38604 -30.678539 -40.068275
v  -47.873913 -39.475643 34.369587
v  -51.168613 7.113903 30.526678
v  -12.683151 0.60988629 20.031803
v  -65.037361 15.685658 87.192879
v  -17.008451 23.803751 114.71243
v  -29.793015 43.958401 65.676758
v  24.359192 23.455502 72.492752
v  34.555218 -9.0732555 72.492737
v  10.34551 -30.903923 30.52669
v  -74.563881 -28.482525 79.308784
v  -30.663147 -28.482574 126.10099
v  26.442305 -30.678482 99.922737
v  -11.030118 -67.748405 65.676773
v  -38.25666 -62.320835 85.457954
v  117.8288 103.03275 54.138344
v  106.45856 61.969238 -0.71360838
v  135.95612 91.829132 -19.92749
v  71.53878 59.448441 18.026413
v  29.10804 77.540504 -17.659967
v  73.179657 81.21817 -55.897026
v  149.47223 131.56656 -0.71362275
v  37.426537 152.72409 -55.565548
v  99.828995 131.56662 -69.041862
v  77.876656 163.92799 60.697361
v  136.10995 163.92786 18.026363
v  83.716553 196.30841 18.026474
v  19.299322 163.92772 18.500261
v  48.796787 193.7876 -0.71362853
v  126.14725 178.21617 -17.660032
v  93.817833 176.10576 -50.542591
v  5.7831483 124.19014 -0.71362251
v  55.531193 116.51475 67.292183
v  19.145296 91.829094 18.026394
v  153.82417 -56.617245 -19.453636
v  188.74397 -54.096409 -0.71359956
v  155.46503 -34.847519 54.469772
v  111.39337 -38.5252 16.23278
v  101.43068 -24.236609 -19.453604
v  88.068527 8.1244631 -0.71361339
v  218.24141 -24.236658 18.500273
v  231.7576 15.500941 -0.71361715
v  200.36679 11.812746 54.966095
v  208.43269 62.150639 16.232809
v  218.39548 47.862118 -19.453844
v  166.00192 80.242722 -19.453655
v  160.16205 47.862228 -62.12455
v  131.08217 77.721909 -0.71362334
v  101.58464 47.861984 -19.927486
v  123.61481 47.862125 48.822304
v  176.10326 60.040081 49.115395
v  200.11423 -13.032982 -55.565605
v  137.81657 0.44905981 -68.719406
v  137.71176 8.1245146 67.614624
v  -145.0016 -75.672813 18.026381
v  -187.43233 -57.580872 -17.659916
v  -155.10287 -55.470177 -50.542686
v  -110.08181 -73.152 -0.71360302
v  -161.114 -10.931073 -69.041862
v  -80.584343 -43.292179 18.500275
v  -67.068138 -3.5546675 -0.71362299
v  -116.71136 -3.5546119 67.614624
v  -139.16164 -43.292328 60.697319
v  -200.15318 17.308216 35.138893
v  -138.66371 28.806671 60.697327
v  -80.430344 28.80649 18.026476
v  -132.82381 61.187149 18.026409
v  -167.74356 58.666328 -0.71362603
v  -175.21094 28.806538 -50.249668
v  -90.392998 43.095078 -17.660027
v  -122.72252 40.984501 -50.542648
v  -98.711525 -32.088509 -55.565536
v  -210.7572 -10.931128 -0.71361417
v  -197.39508 -43.292313 18.026436
v  -61.143578 -41.708321 -27.942564
v  -10.405773 -38.045609 -0.71360105
v  -58.759441 -10.077238 79.466942
v  -122.79491 -15.420841 23.909155
v  -137.2704 5.3400869 -27.942532
v  -156.68539 52.36026 -0.71361148
v  32.453579 5.3402514 27.203852
v  52.092392 63.078144 -0.71361572
v  -20.038401 63.078232 98.566162
v  -111.07508 57.719292 80.188049
v  -137.04668 110.09834 27.203779
v  -45.833607 125.51583 79.466919
v  -94.187408 153.48413 -0.71363258
v  -105.0373 110.09832 -72.688522
v  -37.619328 81.467705 -100.34364
v  -43.449501 157.14685 -27.942556
v  18.201662 130.85941 -25.336435
v  32.67728 110.09846 26.515409
v  6.1149964 21.618935 -80.412567
v  -98.983368 33.970871 -89.943138
v  42.795818 -84.150208 26.515371
v  -18.855379 -57.862785 23.909172
v  28.118813 -54.796211 -73.114326
v  93.533554 -80.487526 -0.71359813
v  -33.331013 -37.101761 -27.942526
v  -52.746017 9.9183683 -0.71361744
v  -6.7687068 51.377716 -80.412521
v  136.39299 -37.101616 27.203856
v  156.0318 20.636206 -0.71362102
v  110.42146 15.277376 80.188049
v  83.90097 20.636282 -99.993378
v  104.38354 -37.101826 -72.688461
v  52.004662 67.656601 88.515419
v  122.14105 88.417625 23.909195
v  60.489872 114.70496 26.515301
v  -33.107292 67.656418 27.203814
v  9.752018 111.04222 -0.71362984
v  75.166924 85.350815 -73.114349
v  136.6167 67.656456 -27.94268
v  19.384769 9.9184046 98.566154
v  51.281067 -37.101917 88.515434

# 0 UV coordinates

# 226 vertex normals
vn -12.996658 -37.490978 -9.5184536
vn -29.96394 -11.997603 -24.966127
vn 14.816189 32.663292 19.459644
vn -22.919241 24.794596 22.913404
vn -25.8283 28.135588 -14.365766
vn 12.996646 37.490974 -9.5184946
vn -13.917504 32.462605 -20.434526
vn 31.807886 9.9700737 -23.536001
vn 30.048473 11.595749 -25.054247
vn -25.026596 10.487217 30.475813
vn 26.295307 14.902879 27.414385
vn 34.576908 10.838017 18.763321
vn 9.2833681 5.7529635 -39.316792
vn 0.20633993 -9.0454369 -39.789761
vn -35.458103 -4.3428159 -19.721827
vn -31.799807 -9.4185705 23.772898
vn 17.041029 1.5270092 37.045364
vn 33.339565 -22.245663 -7.6610365
vn 12.09587 -33.463493 -19.974293
vn -14.704672 -31.970284 20.658194
vn 30.139635 -26.627373 -6.9045668
vn 11.734556 -27.37347 27.8941
vn -11.313868 -4.0169201 -38.999336
vn -15.77987 33.180565 17.752003
vn -28.464111 27.065577 -11.060579
vn -2.902925 28.964676 -28.595594
vn 14.383535 30.236143 -23.323313
vn 12.49364 36.966396 11.936588
vn 31.807878 9.9700823 -23.536007
vn 28.943567 12.527648 -25.892387
vn -38.012905 10.133198 -10.836286
vn -20.877409 12.580175 32.725529
vn 27.293219 14.540009 26.622475
vn 34.576923 10.838009 18.763302
vn -0.59128767 -13.280025 -38.579514
vn -35.339958 -4.1467357 -19.974478
vn -29.740253 1.4339519 27.902489
vn 17.052528 3.5834622 36.897942
vn 33.339561 -22.245676 -7.661027
vn 2.3435695 -28.824068 -28.788336
vn -16.240931 -35.217358 -12.69084
vn -26.45569 -29.911572 -8.3953485
vn -24.857931 -22.433516 23.321838
vn 31.379927 -25.071632 -7.1972985
vn 11.129375 -31.167912 23.87019
vn 9.6731844 -31.730812 23.762844
vn 31.281067 -23.671131 11.236559
vn -6.7648973 -38.560822 -11.505941
vn -3.3875537 -38.987865 -11.55674
vn 35.161366 -17.392719 11.236532
vn -24.903549 -12.313279 -29.887859
vn 20.368652 -18.62743 -30.053692
vn -10.126285 -4.8813162 -39.226505
vn 33.011013 0.36845884 -23.983845
vn 17.430475 28.203321 23.787363
vn -16.047754 30.187576 22.277058
vn -31.281111 23.671087 -11.236514
vn 7.8897395 38.703506 -10.241016
vn 3.1176276 39.149734 -11.075499
vn -11.502608 32.447884 -21.906908
vn -14.034552 31.423395 21.924623
vn 21.060617 34.077145 7.7644157
vn 36.851559 17.18866 -3.4059
vn 32.42627 7.6549788 -23.55899
vn 26.618763 14.85875 -27.124645
vn -2.9703555 15.268009 -37.724693
vn -35.161377 17.392702 -11.236487
vn -22.233318 14.771296 30.863829
vn 23.095697 11.757736 31.518757
vn 34.81385 2.1093545 21.180977
vn -32.720608 -7.9928331 -23.033972
vn -36.851585 -17.188618 -3.4058275
vn -32.95512 -0.42409855 24.059671
vn -32.912388 0.37723178 24.118876
vn 8.7210369 1.4308711 39.836964
vn 17.181358 -30.481825 -20.993973
vn -21.060616 -34.077091 7.7646537
vn -16.633179 -26.913296 25.77013
vn 0.80226517 -26.531122 30.992634
vn 13.682832 -32.081745 21.18087
vn -3.3875227 -38.987869 11.556748
vn -6.7648492 -38.560829 11.505942
vn -36.851604 -17.188587 3.4057887
vn 35.550011 -2.4804947 19.877903
vn 21.060556 34.077156 -7.7645516
vn 17.430342 28.203371 -23.787405
vn -14.034509 31.423389 -21.924656
vn -16.04775 30.187551 -22.277098
vn -31.171104 24.365583 9.9884119
vn 3.1176043 39.149731 11.075491
vn -8.1775541 34.771458 19.727169
vn 7.889585 38.703529 10.241034
vn 34.813931 2.1091316 -21.18088
vn 23.095566 11.757706 -31.518864
vn -22.233273 14.771331 -30.863848
vn -35.148705 17.401178 11.263001
vn -3.9673734 16.203585 37.239643
vn 26.118275 16.383106 26.730457
vn 34.209118 9.8612013 19.939421
vn 36.851597 17.18858 3.4059331
vn 8.7210207 1.4309101 -39.836967
vn -32.955112 -0.42414126 -24.059677
vn -32.912388 0.37721425 -24.118868
vn -33.011017 -0.36848864 23.983845
vn -32.426273 -7.6548767 23.559015
vn -23.058985 -18.191599 28.327314
vn 7.4173012 8.4893541 39.217369
vn 8.3774519 -8.4768562 39.026257
vn 20.205626 -19.757235 29.435894
vn 35.161396 -17.3927 -11.236455
vn 13.682837 -32.081776 -21.180828
vn 0.80222881 -26.531136 -30.992624
vn -16.633186 -26.913303 -25.770123
vn -21.060596 -34.077095 -7.7646818
vn 31.281065 -23.671152 -11.236506
vn 17.181313 -30.48185 20.993973
vn -7.8894858 -38.703541 -10.241055
vn -3.1175973 -39.149734 -11.075487
vn -26.618809 -14.858688 -27.124638
vn 33.011021 0.3684057 23.983835
vn -14.456841 1.5304557 38.12801
vn 17.430437 28.203333 23.787384
vn -14.957083 30.874098 22.094418
vn -34.422562 20.671289 -7.271358
vn 7.8895521 38.703533 -10.241052
vn 3.1176107 39.149731 -11.075499
vn -8.1775341 34.771481 -19.727137
vn -14.034507 31.423405 21.924643
vn 21.060602 34.077091 7.7646751
vn 36.851608 17.188589 -3.4057486
vn 32.720638 7.9927897 -23.033947
vn 27.663216 11.007927 -27.904474
vn -3.967278 16.203516 -37.239689
vn -33.901001 21.608088 -6.9928565
vn -15.272063 -2.2862666 37.770683
vn 20.923296 20.296875 28.554165
vn 33.011703 -0.25832239 23.984337
vn 10.489292 6.1243987 -38.955795
vn 2.9703929 -15.267935 -37.724716
vn -33.011028 -0.36856657 -23.983824
vn -32.426277 -7.6549287 -23.558994
vn -36.851612 -17.188553 -3.4058788
vn -37.104877 -6.1571989 15.824171
vn -23.372454 -10.07077 31.896635
vn 21.573406 -17.40127 29.947815
vn 35.161358 -17.392754 -11.236482
vn 11.502665 -32.44788 -21.906879
vn -21.06053 -34.077148 7.7646503
vn -17.430361 -28.203354 23.787407
vn 31.281076 -23.671135 -11.236518
vn 14.034432 -31.423431 21.924648
vn 16.047714 -30.187584 22.277077
vn -3.3875504 -38.987869 11.556751
vn -6.764873 -38.560829 11.505959
vn -36.851612 -17.188566 3.4057772
vn 33.011017 0.36840671 23.983843
vn -7.6211042 -6.3019462 39.589035
vn -17.181353 30.481825 20.993977
vn -31.171103 24.36557 -9.9884386
vn -0.11967535 28.203251 -29.489828
vn 12.800644 27.294661 -27.499683
vn -12.474506 34.077061 -18.660868
vn 3.3875184 38.987869 11.556735
vn 15.014356 36.305744 11.024948
vn 14.391211 36.664581 10.662494
vn 36.851585 17.188627 -3.405802
vn 32.720604 7.9928217 -23.033987
vn 27.720366 10.978812 -27.859192
vn -12.385829 7.6549325 -38.119297
vn -35.148701 17.401161 -11.263021
vn -20.205639 19.757252 29.435877
vn -8.3774567 8.4768353 39.02626
vn 22.817114 18.157963 28.543922
vn 33.011696 -0.25827828 23.984339
vn 2.205483 -11.414363 -39.114395
vn -33.979984 2.3898869 -22.466347
vn -34.382275 -1.5002877 -21.924782
vn -35.550018 2.4804776 19.877895
vn -34.209122 -9.8611498 19.939445
vn -23.087009 -18.11681 28.352404
vn 20.368658 -18.62742 30.053698
vn 35.16135 -17.392767 -11.236494
vn 13.682867 -32.081749 -21.18084
vn -0.18761176 -25.915684 -31.518715
vn -17.43038 -28.203268 -23.787497
vn -21.060572 -34.077118 -7.7646537
vn 31.281086 -23.671124 -11.236521
vn 17.181355 -30.481827 20.993977
vn -15.338387 -36.824352 -8.5900126
vn -3.1176171 -39.149738 -11.075456
vn -36.851593 -17.188602 3.4058087
vn -25.270599 -10.386965 -30.30834
vn 35.550018 -2.4805119 19.877899
vn -10.489292 -6.1244106 -38.955795
vn 33.011009 0.36844352 -23.98385
vn 13.69353 29.695368 24.408192
vn -16.047693 30.187582 22.2771
vn -31.281082 23.67112 -11.236532
vn 15.338348 36.82436 -8.590065
vn 17.264647 35.735035 -9.4882526
vn 3.1175795 39.149734 -11.075516
vn -11.502629 32.447884 -21.906895
vn -14.034509 31.423376 21.924677
vn 33.011688 -0.25832108 -23.984354
vn 25.175972 15.156834 -28.311279
vn -2.970371 15.267971 -37.724712
vn -35.161392 17.392679 -11.236503
vn -21.57338 17.401285 29.947823
vn 21.237654 19.047134 29.176298
vn 34.209106 9.8612165 19.939436
vn 36.851593 17.188614 3.4057639
vn 3.9673815 -16.203564 -37.239651
vn -34.813885 -2.1092627 -21.180935
vn -33.011017 -0.36843932 23.983841
vn -32.42627 -7.6549096 23.559008
vn -20.623472 -20.160412 28.867245
vn 7.9194589 2.48053 39.952682
vn 8.2201481 -2.9440966 39.860371
vn 21.065655 -19.135693 29.242964
vn 35.148655 -17.401281 -11.262988
vn 8.1775761 -34.771469 -19.727135
vn -17.264662 -35.735043 -9.4881964
vn -13.693596 -29.695347 24.408186
vn 31.171091 -24.36561 -9.9883919
vn 14.03452 -31.423388 21.924658
vn 16.047718 -30.187576 22.277086

# Mesh 'Icosphere.042' with 226 faces
g Icosphere.042
usemtl DefaultMaterial
f  1//1 2//1 3//1
f  3//2 2//2 4//2
f  5//3 6//3 7//3
f  8//4 5//4 7//4
f  4//5 8//5 7//5
f  6//6 9//6 7//6
f  9//7 4//7 7//7
f  10//8 11//8 6//8
f  11//9 9//9 6//9
f  12//10 5//10 8//10
f  13//11 6//11 5//11
f  13//12 10//12 6//12
f  11//13 4//13 9//13
f  11//14 3//14 4//14
f  4//15 2//15 8//15
f  8//16 2//16 12//16
f  12//17 13//17 5//17
f  13//18 11//18 10//18
f  1//19 3//19 11//19
f  1//20 12//20 2//20
f  13//21 1//21 11//21
f  1//22 13//22 12//22
f  14//23 15//23 16//23
f  17//24 18//24 19//24
f  15//25 17//25 19//25
f  16//26 15//26 19//26
f  20//27 16//27 19//27
f  18//28 20//28 19//28
f  21//29 22//29 20//29
f  22//30 16//30 20//30
f  23//31 17//31 15//31
f  24//32 18//32 17//32
f  25//33 20//33 18//33
f  25//34 21//34 20//34
f  22//35 14//35 16//35
f  15//36 14//36 23//36
f  23//37 24//37 17//37
f  24//38 25//38 18//38
f  25//39 22//39 21//39
f  26//40 14//40 22//40
f  26//41 27//41 14//41
f  27//42 23//42 14//42
f  27//43 24//43 23//43
f  25//44 26//44 22//44
f  27//45 26//45 24//45
f  26//46 25//46 24//46
f  28//47 29//47 30//47
f  31//48 32//48 33//48
f  31//49 33//49 29//49
f  28//50 30//50 34//50
f  33//51 32//51 35//51
f  30//52 33//52 36//52
f  33//53 35//53 36//53
f  30//54 36//54 34//54
f  37//55 38//55 39//55
f  40//56 37//56 41//56
f  35//57 40//57 41//57
f  42//58 43//58 39//58
f  43//59 41//59 39//59
f  43//60 35//60 41//60
f  41//61 37//61 39//61
f  39//62 38//62 42//62
f  34//63 42//63 38//63
f  34//64 36//64 42//64
f  36//65 43//65 42//65
f  36//66 35//66 43//66
f  44//67 40//67 35//67
f  45//68 37//68 40//68
f  28//69 38//69 37//69
f  28//70 34//70 38//70
f  35//71 32//71 44//71
f  32//72 46//72 44//72
f  44//73 45//73 40//73
f  44//74 46//74 45//74
f  45//75 28//75 37//75
f  29//76 33//76 30//76
f  32//77 31//77 46//77
f  31//78 45//78 46//78
f  31//79 28//79 45//79
f  31//80 29//80 28//80
f  47//81 48//81 49//81
f  47//82 49//82 50//82
f  51//83 50//83 52//83
f  53//84 54//84 55//84
f  56//85 57//85 58//85
f  57//86 59//86 58//86
f  58//87 59//87 60//87
f  59//88 61//88 60//88
f  61//89 62//89 60//89
f  60//90 63//90 58//90
f  60//91 62//91 63//91
f  63//92 56//92 58//92
f  54//93 64//93 57//93
f  64//94 59//94 57//94
f  65//95 61//95 59//95
f  52//96 62//96 61//96
f  66//97 63//97 62//97
f  55//98 56//98 63//98
f  55//99 54//99 56//99
f  54//100 57//100 56//100
f  64//101 65//101 59//101
f  65//102 52//102 61//102
f  65//103 51//103 52//103
f  52//104 66//104 62//104
f  52//105 50//105 66//105
f  50//106 49//106 66//106
f  66//107 55//107 63//107
f  66//108 49//108 55//108
f  49//109 53//109 55//109
f  53//110 64//110 54//110
f  48//111 47//111 64//111
f  47//112 65//112 64//112
f  47//113 51//113 65//113
f  47//114 50//114 51//114
f  53//115 48//115 64//115
f  48//116 53//116 49//116
f  67//117 68//117 69//117
f  67//118 69//118 70//118
f  69//119 68//119 71//119
f  72//120 73//120 74//120
f  75//121 74//121 76//121
f  77//122 78//122 79//122
f  76//123 77//123 80//123
f  81//124 76//124 80//124
f  82//125 83//125 79//125
f  83//126 80//126 79//126
f  83//127 81//127 80//127
f  80//128 77//128 79//128
f  79//129 78//129 82//129
f  73//130 82//130 78//130
f  73//131 84//131 82//131
f  84//132 83//132 82//132
f  71//133 81//133 83//133
f  85//134 76//134 81//134
f  76//135 74//135 77//135
f  74//136 78//136 77//136
f  74//137 73//137 78//137
f  84//138 71//138 83//138
f  84//139 69//139 71//139
f  71//140 85//140 81//140
f  71//141 68//141 85//141
f  68//142 86//142 85//142
f  85//143 86//143 76//143
f  86//144 75//144 76//144
f  75//145 72//145 74//145
f  72//146 84//146 73//146
f  70//147 69//147 84//147
f  68//148 67//148 86//148
f  67//149 75//149 86//149
f  72//150 70//150 84//150
f  67//151 70//151 75//151
f  70//152 72//152 75//152
f  87//153 88//153 89//153
f  87//154 89//154 90//154
f  91//155 90//155 92//155
f  93//156 94//156 95//156
f  89//157 95//157 96//157
f  97//158 98//158 99//158
f  100//159 97//159 99//159
f  101//160 100//160 102//160
f  103//161 101//161 102//161
f  102//162 100//162 99//162
f  99//163 98//163 102//163
f  98//164 103//164 102//164
f  98//165 104//165 103//165
f  94//166 103//166 104//166
f  94//167 105//167 103//167
f  105//168 101//168 103//168
f  101//169 106//169 100//169
f  92//170 97//170 100//170
f  96//171 98//171 97//171
f  96//172 95//172 98//172
f  95//173 104//173 98//173
f  95//174 94//174 104//174
f  105//175 106//175 101//175
f  106//176 92//176 100//176
f  106//177 91//177 92//177
f  92//178 96//178 97//178
f  92//179 90//179 96//179
f  90//180 89//180 96//180
f  89//181 93//181 95//181
f  93//182 105//182 94//182
f  88//183 87//183 105//183
f  87//184 106//184 105//184
f  87//185 91//185 106//185
f  87//186 90//186 91//186
f  93//187 88//187 105//187
f  88//188 93//188 89//188
f  107//189 108//189 109//189
f  107//190 109//190 110//190
f  111//191 108//191 112//191
f  109//192 111//192 113//192
f  114//193 115//193 116//193
f  109//194 113//194 117//194
f  118//195 117//195 115//195
f  119//196 120//196 121//196
f  122//197 119//197 123//197
f  113//198 122//198 123//198
f  120//199 124//199 121//199
f  120//200 125//200 124//200
f  124//201 123//201 121//201
f  124//202 113//202 123//202
f  123//203 119//203 121//203
f  115//204 117//204 125//204
f  117//205 124//205 125//205
f  117//206 113//206 124//206
f  112//207 122//207 113//207
f  126//208 119//208 122//208
f  116//209 120//209 119//209
f  116//210 115//210 120//210
f  115//211 125//211 120//211
f  118//212 109//212 117//212
f  113//213 111//213 112//213
f  112//214 126//214 122//214
f  112//215 108//215 126//215
f  108//216 127//216 126//216
f  126//217 116//217 119//217
f  126//218 127//218 116//218
f  127//219 114//219 116//219
f  114//220 118//220 115//220
f  110//221 109//221 118//221
f  109//222 108//222 111//222
f  107//223 127//223 108//223
f  114//224 110//224 118//224
f  107//225 110//225 127//225
f  110//226 114//226 127//226

